<?xml version="1.0"?>
<svg version="1.1" xmlns="http://www.w3.org/2000/svg" width="270" height="50" style="border: dashed 2px #aaa"><path fill="#" d="M31.044,38.748c0,0.252-0.112,0.42-0.448,0.56c-1.848,0.756-3.528,1.148-5.572,1.148c-5.908,0-8.792-4.172-8.792-9.94c0-5.74,3.444-10.136,9.072-10.136c1.932,0,3.668,0.392,5.264,1.176c0.336,0.168,0.448,0.308,0.448,0.476c0,0.112-0.028,0.224-0.084,0.364l-0.644,1.764c-0.084,0.252-0.224,0.364-0.392,0.364c-0.084,0-0.196-0.056-0.308-0.112c-1.4-0.728-2.66-1.008-4.06-1.008c-3.892,0-5.404,3.584-5.404,6.972c0,4.312,2.016,7.056,5.46,7.056c1.344,0,2.716-0.308,4.032-0.896c0.14-0.056,0.252-0.112,0.336-0.112c0.196,0,0.336,0.14,0.448,0.42l0.56,1.512c0.056,0.14,0.084,0.28,0.084,0.392z M49.37,21.444l-0.196,1.624c-0.056,0.476-0.364,0.588-0.868,0.588l-5.068,0l0,15.82c0,0.532-0.112,0.644-0.588,0.644l-2.464,0c-0.504,0-0.588-0.112-0.588-0.616l0-15.848l-5.236,0c-0.476,0-0.644-0.196-0.644-0.672l0-1.652c0-0.42,0.196-0.588,0.616-0.588l14.168,0c0.728,0,0.924,0.224,0.868,0.7z M69.292,30.516c0,3.36-1.148,5.88-3.052,7.504c-1.736,1.456-4.172,2.1-6.944,2.1l-5.348,0c-0.56,0-0.812-0.14-0.812-0.784l0-17.752c0-0.588,0.168-0.84,0.868-0.84l4.032,0c3.22,0,5.404,0.364,7.252,1.428c2.52,1.456,4.004,4.2,4.004,8.344z M65.428,30.488c0-2.548-0.756-4.48-2.184-5.544c-1.148-0.84-2.632-1.148-4.424-1.148l-2.044,0l0,13.3l2.156,0c1.932,0,3.556-0.308,4.732-1.484c1.12-1.12,1.764-2.8,1.764-5.124z"/><path fill="#ffbe58" d="M84.76698046875,28.7353515625q-1.18408203125,0-1.85546875,0.750732421875t-0.76904296875,2.130126953125l5.224609375,0q-0.0244140625-1.37939453125-0.72021484375-2.130126953125t-1.8798828125-0.750732421875z M85.2918828125,40.234375q-3.2958984375,0-5.1513671875-1.81884765625t-1.85546875-5.1513671875q0-3.43017578125,1.715087890625-5.303955078125t4.742431640625-1.873779296875q2.89306640625,0,4.50439453125,1.64794921875t1.611328125,4.55322265625l0,1.806640625l-8.80126953125,0q0.06103515625,1.5869140625,0.93994140625,2.47802734375t2.4658203125,0.89111328125q1.23291015625,0,2.33154296875-0.25634765625t2.294921875-0.81787109375l0,2.880859375q-0.9765625,0.48828125-2.08740234375,0.726318359375t-2.7099609375,0.238037109375z M94.395520507812,34.814453125l0-3.0517578125l6.55517578125,0l0,3.0517578125l-6.55517578125,0z M110.90882617188,40.234375q-6.3720703125,0-6.3720703125-6.99462890625q0-3.47900390625,1.7333984375-5.316162109375t4.96826171875-1.837158203125q2.3681640625,0,4.248046875,0.927734375l-1.0986328125,2.880859375q-0.87890625-0.35400390625-1.6357421875-0.579833984375t-1.513671875-0.225830078125q-2.9052734375,0-2.9052734375,4.1259765625q0,4.00390625,2.9052734375,4.00390625q1.07421875,0,1.98974609375-0.286865234375t1.8310546875-0.897216796875l0,3.18603515625q-0.9033203125,0.57373046875-1.824951171875,0.79345703125t-2.325439453125,0.2197265625z M122.90553027344,33.14208984375q0,2.0263671875,0.665283203125,3.06396484375t2.166748046875,1.03759765625q1.4892578125,0,2.142333984375-1.031494140625t0.653076171875-3.070068359375q0-2.0263671875-0.6591796875-3.03955078125t-2.16064453125-1.01318359375q-1.4892578125,0-2.1484375,1.007080078125t-0.6591796875,3.045654296875z M132.34156542969,33.14208984375q0,3.33251953125-1.7578125,5.21240234375t-4.89501953125,1.8798828125q-1.96533203125,0-3.466796875-0.860595703125t-2.30712890625-2.471923828125t-0.8056640625-3.759765625q0-3.3447265625,1.74560546875-5.2001953125t4.9072265625-1.85546875q1.96533203125,0,3.466796875,0.8544921875t2.30712890625,2.45361328125t0.8056640625,3.74755859375z M149.355359375,39.990234375l-3.72314453125,0l0-7.97119140625q0-1.47705078125-0.494384765625-2.215576171875t-1.556396484375-0.738525390625q-1.42822265625,0-2.0751953125,1.0498046875t-0.64697265625,3.45458984375l0,6.4208984375l-3.72314453125,0l0-13.6474609375l2.84423828125,0l0.50048828125,1.74560546875l0.20751953125,0q0.54931640625-0.93994140625,1.5869140625-1.470947265625t2.38037109375-0.531005859375q3.06396484375,0,4.150390625,2.001953125l0.32958984375,0q0.54931640625-0.9521484375,1.617431640625-1.47705078125t2.410888671875-0.52490234375q2.3193359375,0,3.509521484375,1.190185546875t1.190185546875,3.814697265625l0,8.89892578125l-3.7353515625,0l0-7.97119140625q0-1.47705078125-0.494384765625-2.215576171875t-1.556396484375-0.738525390625q-1.3671875,0-2.044677734375,0.9765625t-0.677490234375,3.1005859375l0,6.84814453125z M175.62208300781,39.990234375l-3.72314453125,0l0-7.97119140625q0-1.47705078125-0.494384765625-2.215576171875t-1.556396484375-0.738525390625q-1.42822265625,0-2.0751953125,1.0498046875t-0.64697265625,3.45458984375l0,6.4208984375l-3.72314453125,0l0-13.6474609375l2.84423828125,0l0.50048828125,1.74560546875l0.20751953125,0q0.54931640625-0.93994140625,1.5869140625-1.470947265625t2.38037109375-0.531005859375q3.06396484375,0,4.150390625,2.001953125l0.32958984375,0q0.54931640625-0.9521484375,1.617431640625-1.47705078125t2.410888671875-0.52490234375q2.3193359375,0,3.509521484375,1.190185546875t1.190185546875,3.814697265625l0,8.89892578125l-3.7353515625,0l0-7.97119140625q0-1.47705078125-0.494384765625-2.215576171875t-1.556396484375-0.738525390625q-1.3671875,0-2.044677734375,0.9765625t-0.677490234375,3.1005859375l0,6.84814453125z M195.32142382812,28.7353515625q-1.18408203125,0-1.85546875,0.750732421875t-0.76904296875,2.130126953125l5.224609375,0q-0.0244140625-1.37939453125-0.72021484375-2.130126953125t-1.8798828125-0.750732421875z M195.84632617188,40.234375q-3.2958984375,0-5.1513671875-1.81884765625t-1.85546875-5.1513671875q0-3.43017578125,1.715087890625-5.303955078125t4.742431640625-1.873779296875q2.89306640625,0,4.50439453125,1.64794921875t1.611328125,4.55322265625l0,1.806640625l-8.80126953125,0q0.06103515625,1.5869140625,0.93994140625,2.47802734375t2.4658203125,0.89111328125q1.23291015625,0,2.33154296875-0.25634765625t2.294921875-0.81787109375l0,2.880859375q-0.9765625,0.48828125-2.08740234375,0.726318359375t-2.7099609375,0.238037109375z M213.77564746094,26.08642578125q0.7568359375,0,1.25732421875,0.10986328125l-0.28076171875,3.4912109375q-0.45166015625-0.1220703125-1.0986328125-0.1220703125q-1.7822265625,0-2.777099609375,0.91552734375t-0.994873046875,2.5634765625l0,6.94580078125l-3.72314453125,0l0-13.6474609375l2.81982421875,0l0.54931640625,2.294921875l0.18310546875,0q0.634765625-1.1474609375,1.715087890625-1.849365234375t2.349853515625-0.701904296875z M224.771375,40.234375q-6.3720703125,0-6.3720703125-6.99462890625q0-3.47900390625,1.7333984375-5.316162109375t4.96826171875-1.837158203125q2.3681640625,0,4.248046875,0.927734375l-1.0986328125,2.880859375q-0.87890625-0.35400390625-1.6357421875-0.579833984375t-1.513671875-0.225830078125q-2.9052734375,0-2.9052734375,4.1259765625q0,4.00390625,2.9052734375,4.00390625q1.07421875,0,1.98974609375-0.286865234375t1.8310546875-0.897216796875l0,3.18603515625q-0.9033203125,0.57373046875-1.824951171875,0.79345703125t-2.325439453125,0.2197265625z M239.45362597656,28.7353515625q-1.18408203125,0-1.85546875,0.750732421875t-0.76904296875,2.130126953125l5.224609375,0q-0.0244140625-1.37939453125-0.72021484375-2.130126953125t-1.8798828125-0.750732421875z M239.97852832031,40.234375q-3.2958984375,0-5.1513671875-1.81884765625t-1.85546875-5.1513671875q0-3.43017578125,1.715087890625-5.303955078125t4.742431640625-1.873779296875q2.89306640625,0,4.50439453125,1.64794921875t1.611328125,4.55322265625l0,1.806640625l-8.80126953125,0q0.06103515625,1.5869140625,0.93994140625,2.47802734375t2.4658203125,0.89111328125q1.23291015625,0,2.33154296875-0.25634765625t2.294921875-0.81787109375l0,2.880859375q-0.9765625,0.48828125-2.08740234375,0.726318359375t-2.7099609375,0.238037109375z"/></svg>
