<?xml version="1.0" encoding="UTF-8"?>
<svg xmlns="http://www.w3.org/2000/svg" xmlns:xlink="http://www.w3.org/1999/xlink" width="131px" height="51px" viewBox="0 0 131 51" version="1.1">
<defs>
<filter id="alpha" filterUnits="objectBoundingBox" x="0%" y="0%" width="100%" height="100%">
  <feColorMatrix type="matrix" in="SourceGraphic" values="0 0 0 0 1 0 0 0 0 1 0 0 0 0 1 0 0 0 1 0"/>
</filter>
<mask id="mask0">
  <g filter="url(#alpha)">
<rect x="0" y="0" width="131" height="51" style="fill:rgb(0%,0%,0%);fill-opacity:0.992157;stroke:none;"/>
  </g>
</mask>
<clipPath id="clip1">
  <rect x="0" y="0" width="131" height="51"/>
</clipPath>
<g id="surface5" clip-path="url(#clip1)">
<path style=" stroke:none;fill-rule:evenodd;fill:rgb(100%,74.509804%,34.509804%);fill-opacity:1;" d="M 3.019531 -0.0507812 C 6.191406 -0.0507812 9.363281 -0.0507812 12.539062 -0.0507812 C 14.183594 0.351562 15.257812 1.382812 15.761719 3.039062 C 16.847656 5.976562 17.972656 8.894531 19.136719 11.796875 C 19.402344 12.109375 19.726562 12.332031 20.109375 12.464844 C 34.640625 12.601562 49.171875 12.671875 63.710938 12.671875 C 65.847656 13.597656 66.476562 15.160156 65.601562 17.359375 C 65.128906 18.175781 64.429688 18.671875 63.503906 18.855469 C 50.335938 18.890625 37.167969 18.921875 24 18.957031 C 22.925781 19.285156 22.566406 19.988281 22.925781 21.070312 C 23.167969 21.417969 23.492188 21.640625 23.898438 21.738281 C 35.460938 21.773438 47.027344 21.808594 58.59375 21.84375 C 60.609375 22.589844 61.34375 24.015625 60.792969 26.117188 C 60.34375 27.085938 59.609375 27.71875 58.59375 28.023438 C 48.253906 28.058594 37.917969 28.09375 27.582031 28.128906 C 26.667969 28.394531 26.3125 28.996094 26.507812 29.929688 C 26.703125 30.4375 27.0625 30.765625 27.582031 30.910156 C 36.355469 30.910156 45.121094 30.980469 53.882812 31.113281 C 55.222656 31.640625 55.941406 32.636719 56.03125 34.101562 C 55.953125 35.523438 55.269531 36.519531 53.984375 37.089844 C 48.5 37.210938 43.007812 37.261719 37.507812 37.246094 C 32.152344 37.226562 26.796875 37.210938 21.441406 37.195312 C 20.964844 37.023438 20.570312 36.730469 20.265625 36.316406 C 16.632812 26.832031 12.984375 17.351562 9.3125 7.882812 C 8.910156 7.367188 8.382812 7.109375 7.726562 7.109375 C 6.019531 7.074219 4.316406 7.039062 2.609375 7.007812 C 1.214844 6.582031 0.328125 5.671875 -0.0507812 4.277344 C -0.0507812 3.761719 -0.0507812 3.246094 -0.0507812 2.730469 C 0.457031 1.222656 1.480469 0.296875 3.019531 -0.0507812 Z M 3.019531 -0.0507812 "/>
</g>
<mask id="mask1">
  <g filter="url(#alpha)">
<rect x="0" y="0" width="131" height="51" style="fill:rgb(0%,0%,0%);fill-opacity:0.941176;stroke:none;"/>
  </g>
</mask>
<clipPath id="clip2">
  <rect x="0" y="0" width="131" height="51"/>
</clipPath>
<g id="surface8" clip-path="url(#clip2)">
<path style=" stroke:none;fill-rule:evenodd;fill:rgb(99.607843%,100%,99.607843%);fill-opacity:1;" d="M 96.355469 12.3125 C 97.394531 12.445312 98.433594 12.445312 99.476562 12.3125 C 102.476562 12.566406 104.761719 13.976562 106.335938 16.535156 C 108.238281 20.691406 107.46875 24.246094 104.03125 27.199219 C 102.3125 28.40625 100.398438 28.902344 98.300781 28.695312 C 97.585938 28.675781 96.867188 28.660156 96.152344 28.640625 C 95.949219 28.582031 95.792969 28.464844 95.691406 28.28125 C 95.625 23.128906 95.625 17.980469 95.691406 12.828125 C 95.875 12.585938 96.097656 12.414062 96.355469 12.3125 Z M 97.378906 14.167969 C 100.898438 13.660156 103.472656 14.96875 105.105469 18.082031 C 106.070312 20.988281 105.4375 23.476562 103.214844 25.550781 C 102.457031 26.15625 101.605469 26.566406 100.65625 26.789062 C 99.570312 26.925781 98.476562 26.976562 97.378906 26.941406 C 97.378906 22.683594 97.378906 18.425781 97.378906 14.167969 Z M 97.378906 14.167969 "/>
</g>
<mask id="mask2">
  <g filter="url(#alpha)">
<rect x="0" y="0" width="131" height="51" style="fill:rgb(0%,0%,0%);fill-opacity:0.929412;stroke:none;"/>
  </g>
</mask>
<clipPath id="clip3">
  <rect x="0" y="0" width="131" height="51"/>
</clipPath>
<g id="surface11" clip-path="url(#clip3)">
<path style=" stroke:none;fill-rule:evenodd;fill:rgb(99.607843%,100%,99.607843%);fill-opacity:1;" d="M 73.738281 12.414062 C 75.832031 12.222656 77.722656 12.734375 79.417969 13.960938 C 79.785156 15 79.425781 15.464844 78.34375 15.351562 C 74.917969 13.40625 71.964844 13.972656 69.492188 17.050781 C 67.742188 20.257812 68.203125 23.089844 70.875 25.550781 C 73.339844 27.324219 75.863281 27.394531 78.445312 25.757812 C 79.339844 25.660156 79.695312 26.054688 79.519531 26.941406 C 79.152344 27.464844 78.65625 27.824219 78.039062 28.023438 C 73.945312 29.53125 70.582031 28.554688 67.957031 25.085938 C 66.449219 22.460938 66.28125 19.75 67.445312 16.949219 C 68.859375 14.460938 70.957031 12.949219 73.738281 12.414062 Z M 73.738281 12.414062 "/>
</g>
<mask id="mask3">
  <g filter="url(#alpha)">
<rect x="0" y="0" width="131" height="51" style="fill:rgb(0%,0%,0%);fill-opacity:0.941176;stroke:none;"/>
  </g>
</mask>
<clipPath id="clip4">
  <rect x="0" y="0" width="131" height="51"/>
</clipPath>
<g id="surface14" clip-path="url(#clip4)">
<path style=" stroke:none;fill-rule:evenodd;fill:rgb(99.607843%,100%,99.607843%);fill-opacity:1;" d="M 82.132812 12.414062 C 85.816406 12.398438 89.5 12.414062 93.183594 12.464844 C 93.367188 12.546875 93.519531 12.667969 93.644531 12.828125 C 93.773438 13.28125 93.6875 13.675781 93.390625 14.011719 C 91.792969 14.160156 90.1875 14.214844 88.578125 14.167969 C 88.59375 18.835938 88.578125 23.507812 88.527344 28.179688 C 88.230469 28.660156 87.804688 28.8125 87.25 28.640625 C 87.089844 28.515625 86.96875 28.363281 86.890625 28.179688 C 86.839844 23.507812 86.820312 18.835938 86.839844 14.167969 C 85.226562 14.214844 83.625 14.160156 82.027344 14.011719 C 81.492188 13.449219 81.527344 12.914062 82.132812 12.414062 Z M 82.132812 12.414062 "/>
</g>
<mask id="mask4">
  <g filter="url(#alpha)">
<rect x="0" y="0" width="131" height="51" style="fill:rgb(0%,0%,0%);fill-opacity:0.878431;stroke:none;"/>
  </g>
</mask>
<clipPath id="clip5">
  <rect x="0" y="0" width="131" height="51"/>
</clipPath>
<g id="surface17" clip-path="url(#clip5)">
<path style=" stroke:none;fill-rule:evenodd;fill:rgb(99.607843%,100%,99.607843%);fill-opacity:1;" d="M 68.519531 35.804688 C 70.335938 35.691406 71.480469 36.515625 71.949219 38.277344 C 72.015625 38.550781 72.015625 38.824219 71.949219 39.101562 C 71.898438 39.21875 71.8125 39.304688 71.691406 39.359375 C 70.191406 39.390625 68.691406 39.425781 67.1875 39.460938 C 67.476562 40.09375 67.957031 40.507812 68.621094 40.695312 C 69.28125 40.691406 69.925781 40.625 70.566406 40.492188 C 70.804688 40.734375 70.824219 40.992188 70.617188 41.261719 C 68.558594 42.167969 67.09375 41.585938 66.214844 39.511719 C 65.96875 37.617188 66.738281 36.382812 68.519531 35.804688 Z M 68.828125 36.730469 C 70.003906 36.753906 70.71875 37.339844 70.976562 38.480469 C 69.675781 38.515625 68.382812 38.480469 67.085938 38.378906 C 67.351562 37.476562 67.933594 36.925781 68.828125 36.730469 Z M 68.828125 36.730469 "/>
</g>
<mask id="mask5">
  <g filter="url(#alpha)">
<rect x="0" y="0" width="131" height="51" style="fill:rgb(0%,0%,0%);fill-opacity:0.858824;stroke:none;"/>
  </g>
</mask>
<clipPath id="clip6">
  <rect x="0" y="0" width="131" height="51"/>
</clipPath>
<g id="surface20" clip-path="url(#clip6)">
<path style=" stroke:none;fill-rule:evenodd;fill:rgb(99.607843%,100%,99.607843%);fill-opacity:1;" d="M 78.753906 35.804688 C 79.613281 35.6875 80.398438 35.875 81.109375 36.371094 C 81.660156 36.753906 81.640625 37.082031 81.054688 37.347656 C 80.640625 37.148438 80.214844 36.960938 79.777344 36.78125 C 78.390625 36.699219 77.570312 37.355469 77.320312 38.738281 C 77.585938 40.171875 78.4375 40.824219 79.878906 40.695312 C 80.199219 40.554688 80.507812 40.382812 80.800781 40.183594 C 81.421875 40.109375 81.609375 40.367188 81.363281 40.953125 C 79.84375 42 78.410156 41.894531 77.066406 40.644531 C 75.871094 38.398438 76.433594 36.785156 78.753906 35.804688 Z M 78.753906 35.804688 "/>
</g>
<mask id="mask6">
  <g filter="url(#alpha)">
<rect x="0" y="0" width="131" height="51" style="fill:rgb(0%,0%,0%);fill-opacity:0.866667;stroke:none;"/>
  </g>
</mask>
<clipPath id="clip7">
  <rect x="0" y="0" width="131" height="51"/>
</clipPath>
<g id="surface23" clip-path="url(#clip7)">
<path style=" stroke:none;fill-rule:evenodd;fill:rgb(99.607843%,100%,99.607843%);fill-opacity:1;" d="M 84.894531 35.804688 C 87.121094 35.960938 88.164062 37.164062 88.015625 39.410156 C 87.445312 41.117188 86.269531 41.855469 84.484375 41.625 C 82.710938 40.988281 82.011719 39.734375 82.386719 37.863281 C 82.847656 36.695312 83.683594 36.007812 84.894531 35.804688 Z M 84.585938 36.832031 C 85.867188 36.628906 86.703125 37.144531 87.09375 38.378906 C 87.128906 40.027344 86.328125 40.796875 84.6875 40.695312 C 83.210938 40.035156 82.851562 38.988281 83.613281 37.554688 C 83.902344 37.246094 84.226562 37.007812 84.585938 36.832031 Z M 84.585938 36.832031 "/>
</g>
<mask id="mask7">
  <g filter="url(#alpha)">
<rect x="0" y="0" width="131" height="51" style="fill:rgb(0%,0%,0%);fill-opacity:0.87451;stroke:none;"/>
  </g>
</mask>
<clipPath id="clip8">
  <rect x="0" y="0" width="131" height="51"/>
</clipPath>
<g id="surface26" clip-path="url(#clip8)">
<path style=" stroke:none;fill-rule:evenodd;fill:rgb(99.607843%,100%,99.607843%);fill-opacity:1;" d="M 109.96875 35.804688 C 112.238281 35.734375 113.378906 36.835938 113.398438 39.101562 C 113.34375 39.21875 113.261719 39.304688 113.140625 39.359375 C 111.675781 39.410156 110.207031 39.425781 108.742188 39.410156 C 108.832031 39.898438 109.105469 40.261719 109.558594 40.492188 C 109.867188 40.632812 110.191406 40.71875 110.53125 40.75 C 111.019531 40.59375 111.515625 40.507812 112.015625 40.492188 C 112.210938 40.675781 112.261719 40.902344 112.167969 41.160156 C 110.386719 42.121094 108.953125 41.742188 107.871094 40.027344 C 107.210938 37.917969 107.910156 36.511719 109.96875 35.804688 Z M 110.273438 36.730469 C 111.421875 36.769531 112.171875 37.335938 112.527344 38.429688 C 111.195312 38.5 109.867188 38.5 108.535156 38.429688 C 108.835938 37.558594 109.417969 36.992188 110.273438 36.730469 Z M 110.273438 36.730469 "/>
</g>
<mask id="mask8">
  <g filter="url(#alpha)">
<rect x="0" y="0" width="131" height="51" style="fill:rgb(0%,0%,0%);fill-opacity:0.87451;stroke:none;"/>
  </g>
</mask>
<clipPath id="clip9">
  <rect x="0" y="0" width="131" height="51"/>
</clipPath>
<g id="surface29" clip-path="url(#clip9)">
<path style=" stroke:none;fill-rule:evenodd;fill:rgb(99.607843%,100%,99.607843%);fill-opacity:1;" d="M 114.675781 35.804688 C 115.242188 35.703125 115.496094 35.945312 115.445312 36.523438 C 116.363281 35.785156 117.386719 35.613281 118.515625 36.007812 C 118.828125 36.28125 118.84375 36.574219 118.566406 36.886719 C 118.03125 36.769531 117.484375 36.734375 116.929688 36.78125 C 116.023438 37.039062 115.53125 37.640625 115.445312 38.585938 C 115.425781 39.582031 115.375 40.578125 115.289062 41.574219 C 114.894531 41.78125 114.636719 41.675781 114.523438 41.261719 C 114.453125 39.582031 114.453125 37.898438 114.523438 36.214844 C 114.566406 36.070312 114.617188 35.933594 114.675781 35.804688 Z M 114.675781 35.804688 "/>
</g>
<mask id="mask9">
  <g filter="url(#alpha)">
<rect x="0" y="0" width="131" height="51" style="fill:rgb(0%,0%,0%);fill-opacity:0.862745;stroke:none;"/>
  </g>
</mask>
<clipPath id="clip10">
  <rect x="0" y="0" width="131" height="51"/>
</clipPath>
<g id="surface32" clip-path="url(#clip10)">
<path style=" stroke:none;fill-rule:evenodd;fill:rgb(99.607843%,100%,99.607843%);fill-opacity:1;" d="M 121.738281 35.804688 C 122.65625 35.710938 123.476562 35.953125 124.195312 36.523438 C 124.519531 36.9375 124.433594 37.210938 123.9375 37.347656 C 123.523438 37.148438 123.097656 36.960938 122.660156 36.78125 C 120.921875 36.78125 120.152344 37.65625 120.355469 39.410156 C 120.941406 40.554688 121.84375 40.949219 123.070312 40.59375 C 123.339844 40.398438 123.628906 40.242188 123.9375 40.128906 C 124.488281 40.355469 124.539062 40.683594 124.09375 41.109375 C 121.964844 42.238281 120.414062 41.707031 119.433594 39.511719 C 119.144531 37.589844 119.910156 36.351562 121.738281 35.804688 Z M 121.738281 35.804688 "/>
</g>
<mask id="mask10">
  <g filter="url(#alpha)">
<rect x="0" y="0" width="131" height="51" style="fill:rgb(0%,0%,0%);fill-opacity:0.878431;stroke:none;"/>
  </g>
</mask>
<clipPath id="clip11">
  <rect x="0" y="0" width="131" height="51"/>
</clipPath>
<g id="surface35" clip-path="url(#clip11)">
<path style=" stroke:none;fill-rule:evenodd;fill:rgb(99.607843%,100%,99.607843%);fill-opacity:1;" d="M 130.949219 37.964844 C 130.949219 38.378906 130.949219 38.789062 130.949219 39.203125 C 130.847656 39.253906 130.746094 39.304688 130.640625 39.359375 C 129.175781 39.375 127.707031 39.425781 126.242188 39.511719 C 126.96875 40.722656 127.976562 41.03125 129.261719 40.4375 C 129.820312 40.65625 129.871094 40.984375 129.414062 41.417969 C 126.980469 42.125 125.550781 41.234375 125.117188 38.738281 C 125.414062 36.71875 126.574219 35.757812 128.59375 35.855469 C 129.753906 36.144531 130.539062 36.847656 130.949219 37.964844 Z M 127.777344 36.730469 C 128.988281 36.722656 129.742188 37.304688 130.027344 38.480469 C 128.730469 38.480469 127.433594 38.480469 126.140625 38.480469 C 126.339844 37.558594 126.882812 36.976562 127.777344 36.730469 Z M 127.777344 36.730469 "/>
</g>
<mask id="mask11">
  <g filter="url(#alpha)">
<rect x="0" y="0" width="131" height="51" style="fill:rgb(0%,0%,0%);fill-opacity:0.870588;stroke:none;"/>
  </g>
</mask>
<clipPath id="clip12">
  <rect x="0" y="0" width="131" height="51"/>
</clipPath>
<g id="surface38" clip-path="url(#clip12)">
<path style=" stroke:none;fill-rule:evenodd;fill:rgb(99.607843%,100%,99.607843%);fill-opacity:1;" d="M 89.191406 35.90625 C 89.550781 35.878906 89.824219 36.015625 90.011719 36.316406 C 91.191406 35.65625 92.230469 35.824219 93.132812 36.832031 C 94.125 35.804688 95.234375 35.652344 96.460938 36.371094 C 96.921875 36.769531 97.214844 37.265625 97.328125 37.863281 C 97.398438 39.066406 97.398438 40.269531 97.328125 41.46875 C 97.054688 41.746094 96.78125 41.746094 96.511719 41.46875 C 96.476562 40.269531 96.441406 39.066406 96.40625 37.863281 C 95.929688 36.859375 95.195312 36.601562 94.207031 37.089844 C 93.992188 37.269531 93.835938 37.492188 93.746094 37.761719 C 93.617188 38.988281 93.546875 40.226562 93.542969 41.46875 C 93.359375 41.667969 93.140625 41.71875 92.875 41.625 C 92.804688 41.515625 92.753906 41.394531 92.722656 41.261719 C 92.6875 40.097656 92.65625 38.929688 92.621094 37.761719 C 92.1875 36.917969 91.523438 36.660156 90.625 36.988281 C 90.324219 37.222656 90.101562 37.511719 89.960938 37.863281 C 89.925781 39.066406 89.890625 40.269531 89.859375 41.46875 C 89.585938 41.746094 89.3125 41.746094 89.039062 41.46875 C 88.972656 39.683594 88.972656 37.898438 89.039062 36.113281 C 89.113281 36.054688 89.164062 35.988281 89.191406 35.90625 Z M 89.191406 35.90625 "/>
</g>
<mask id="mask12">
  <g filter="url(#alpha)">
<rect x="0" y="0" width="131" height="51" style="fill:rgb(0%,0%,0%);fill-opacity:0.870588;stroke:none;"/>
  </g>
</mask>
<clipPath id="clip13">
  <rect x="0" y="0" width="131" height="51"/>
</clipPath>
<g id="surface41" clip-path="url(#clip13)">
<path style=" stroke:none;fill-rule:evenodd;fill:rgb(99.607843%,100%,99.607843%);fill-opacity:1;" d="M 98.609375 35.90625 C 98.957031 35.867188 99.214844 36.003906 99.375 36.316406 C 100.570312 35.648438 101.628906 35.820312 102.546875 36.832031 C 103.535156 35.804688 104.644531 35.652344 105.875 36.371094 C 106.363281 36.789062 106.65625 37.320312 106.746094 37.964844 C 106.84375 39.179688 106.808594 40.378906 106.640625 41.574219 C 106.378906 41.726562 106.136719 41.691406 105.925781 41.46875 C 105.917969 40.191406 105.851562 38.921875 105.722656 37.65625 C 105.191406 36.839844 104.492188 36.648438 103.625 37.089844 C 103.433594 37.25 103.277344 37.441406 103.164062 37.65625 C 103.03125 38.921875 102.964844 40.191406 102.957031 41.46875 C 102.632812 41.769531 102.363281 41.734375 102.140625 41.367188 C 102.105469 40.199219 102.070312 39.03125 102.035156 37.863281 C 101.515625 36.785156 100.746094 36.5625 99.734375 37.195312 C 99.613281 37.382812 99.496094 37.570312 99.375 37.761719 C 99.339844 38.960938 99.308594 40.164062 99.273438 41.367188 C 99.050781 41.734375 98.777344 41.769531 98.453125 41.46875 C 98.386719 39.683594 98.386719 37.898438 98.453125 36.113281 C 98.527344 36.054688 98.578125 35.988281 98.609375 35.90625 Z M 98.609375 35.90625 "/>
</g>
<mask id="mask13">
  <g filter="url(#alpha)">
<rect x="0" y="0" width="131" height="51" style="fill:rgb(0%,0%,0%);fill-opacity:0.898039;stroke:none;"/>
  </g>
</mask>
<clipPath id="clip14">
  <rect x="0" y="0" width="131" height="51"/>
</clipPath>
<g id="surface44" clip-path="url(#clip14)">
<path style=" stroke:none;fill-rule:evenodd;fill:rgb(99.607843%,100%,99.607843%);fill-opacity:1;" d="M 73.023438 37.964844 C 73.976562 37.949219 74.933594 37.964844 75.886719 38.019531 C 76.160156 38.292969 76.160156 38.566406 75.886719 38.84375 C 74.933594 38.910156 73.976562 38.910156 73.023438 38.84375 C 72.773438 38.554688 72.773438 38.265625 73.023438 37.964844 Z M 73.023438 37.964844 "/>
</g>
<mask id="mask14">
  <g filter="url(#alpha)">
<rect x="0" y="0" width="131" height="51" style="fill:rgb(0%,0%,0%);fill-opacity:0.988235;stroke:none;"/>
  </g>
</mask>
<clipPath id="clip15">
  <rect x="0" y="0" width="131" height="51"/>
</clipPath>
<g id="surface47" clip-path="url(#clip15)">
<path style=" stroke:none;fill-rule:evenodd;fill:rgb(100%,74.117647%,34.117647%);fill-opacity:1;" d="M 27.683594 50.949219 C 27.273438 50.949219 26.867188 50.949219 26.457031 50.949219 C 23.566406 50.253906 22.21875 48.398438 22.414062 45.386719 C 22.988281 42.898438 24.539062 41.59375 27.070312 41.46875 C 29.964844 41.707031 31.535156 43.285156 31.777344 46.210938 C 31.730469 47.972656 30.980469 49.328125 29.527344 50.277344 C 28.933594 50.597656 28.320312 50.820312 27.683594 50.949219 Z M 27.683594 50.949219 "/>
</g>
<mask id="mask15">
  <g filter="url(#alpha)">
<rect x="0" y="0" width="131" height="51" style="fill:rgb(0%,0%,0%);fill-opacity:0.988235;stroke:none;"/>
  </g>
</mask>
<clipPath id="clip16">
  <rect x="0" y="0" width="131" height="51"/>
</clipPath>
<g id="surface50" clip-path="url(#clip16)">
<path style=" stroke:none;fill-rule:evenodd;fill:rgb(100%,74.509804%,34.117647%);fill-opacity:1;" d="M 50.507812 50.949219 C 50.097656 50.949219 49.6875 50.949219 49.277344 50.949219 C 46.769531 50.363281 45.40625 48.765625 45.183594 46.15625 C 45.453125 43.261719 47.023438 41.699219 49.890625 41.46875 C 52.375 41.582031 53.929688 42.851562 54.550781 45.28125 C 54.792969 48.347656 53.445312 50.238281 50.507812 50.949219 Z M 50.507812 50.949219 "/>
</g>
</defs>
<g id="surface1">
<use xlink:href="#surface5" mask="url(#mask0)"/>
<use xlink:href="#surface8" mask="url(#mask1)"/>
<use xlink:href="#surface11" mask="url(#mask2)"/>
<use xlink:href="#surface14" mask="url(#mask3)"/>
<use xlink:href="#surface17" mask="url(#mask4)"/>
<use xlink:href="#surface20" mask="url(#mask5)"/>
<use xlink:href="#surface23" mask="url(#mask6)"/>
<use xlink:href="#surface26" mask="url(#mask7)"/>
<use xlink:href="#surface29" mask="url(#mask8)"/>
<use xlink:href="#surface32" mask="url(#mask9)"/>
<use xlink:href="#surface35" mask="url(#mask10)"/>
<use xlink:href="#surface38" mask="url(#mask11)"/>
<use xlink:href="#surface41" mask="url(#mask12)"/>
<use xlink:href="#surface44" mask="url(#mask13)"/>
<use xlink:href="#surface47" mask="url(#mask14)"/>
<use xlink:href="#surface50" mask="url(#mask15)"/>
</g>
</svg>
