<svg xmlns="http://www.w3.org/2000/svg" viewBox="0 0 64 64"><path fill="#FF8000" d="M28 42H4a1 1 0 00-1 1v18a1 1 0 001 1h24a1 1 0 001-1V43a1 1 0 00-1-1zM20 36h24a1 1 0 001-1V17a1 1 0 00-1-1H20a1 1 0 00-1 1v18a1 1 0 001 1zM60 42H36a1 1 0 00-1 1v18a1 1 0 001 1h24a1 1 0 001-1V43a1 1 0 00-1-1z"/><g fill="#4D4D4D"><path d="M29 36H3a1 1 0 00-1 1v6a1 1 0 001 1h26a1 1 0 001-1v-6a1 1 0 00-1-1zM18.115 17.668a1.002 1.002 0 001.277.609L43.9 9.599a1 1 0 00.609-1.277l-2.002-5.656a.998.998 0 00-.512-.568 1.01 1.01 0 00-.765-.041l-24.509 8.678a1.005 1.005 0 00-.609 1.277l2.003 5.656zM61 36H35a1 1 0 00-1 1v6a1 1 0 001 1h26a1 1 0 001-1v-6a1 1 0 00-1-1z"/></g><g fill="#CCC"><path d="M49.04 11.091h4v2h-4zM55.04 11.091h2v2h-2z"/><path d="M48.756 5.056h2v4h-2z" transform="rotate(61.38 49.758 7.058)"/><path d="M53.144 3.66h2v2h-2z" transform="rotate(61.38 54.147 4.662)"/><path d="M47.755 16.125h4.001v2h-4.001z" transform="rotate(28.634 49.76 17.127)"/><path d="M53.144 18.521h2v2h-2z" transform="rotate(28.628 54.15 19.523)"/></g><path fill="#FFF" d="M19.02 52h-6.04A2.984 2.984 0 0110 49.02c0-1.683 1.337-3.02 2.98-3.02h6.04A2.984 2.984 0 0122 48.98c0 1.683-1.337 3.02-2.98 3.02zm-6.04-4a.98.98 0 00-.98.98c0 .581.439 1.02.98 1.02h6.04a.98.98 0 00.98-.98c0-.581-.439-1.02-.98-1.02h-6.04zM51.02 52h-6.04A2.984 2.984 0 0142 49.02c0-1.683 1.337-3.02 2.98-3.02h6.04A2.984 2.984 0 0154 48.98c0 1.683-1.337 3.02-2.98 3.02zm-6.04-4a.98.98 0 00-.98.98c0 .581.439 1.02.98 1.02h6.04a.98.98 0 00.98-.98c0-.581-.439-1.02-.98-1.02h-6.04zM35.02 26h-6.04A2.984 2.984 0 0126 23.02c0-1.683 1.337-3.02 2.98-3.02h6.04A2.984 2.984 0 0138 22.98c0 1.683-1.337 3.02-2.98 3.02zm-6.04-4a.98.98 0 00-.98.98c0 .581.439 1.02.98 1.02h6.04a.98.98 0 00.98-.98c0-.581-.439-1.02-.98-1.02h-6.04z"/><path fill="#E57300" d="M28 33a23.8 23.8 0 01-9-1.756V35a1 1 0 001 1h24a1 1 0 001-1v-9.462C41.184 30.052 35.001 33 28 33zM12 59a23.8 23.8 0 01-9-1.756V61a1 1 0 001 1h24a1 1 0 001-1v-9.462C25.184 56.052 19.001 59 12 59zM44 59a23.8 23.8 0 01-9-1.756V61a1 1 0 001 1h24a1 1 0 001-1v-9.462C57.184 56.052 51.001 59 44 59z"/><path fill="#FFF" d="M37 30h4v2h-4zM21 56h4v2h-4zM53 56h4v2h-4z"/></svg>